<?xml version="1.0" encoding="utf-8"?>
<!-- Generator: Adobe Illustrator 27.1.1, SVG Export Plug-In . SVG Version: 6.00 Build 0)  -->
<svg version="1.1" id="레이어_1" xmlns="http://www.w3.org/2000/svg" xmlns:xlink="http://www.w3.org/1999/xlink" x="0px"
	 y="0px" viewBox="0 0 600 600" style="enable-background:new 0 0 600 600;" xml:space="preserve">
<style type="text/css">
	.st0{opacity:0.5;}
	.st1{fill:#0093C6;}
</style>
<g class="st0">
	<path class="st1" d="M518.4,278.6c-3.4,7.4-9.2,9.5-17.1,9.5c-133.7-0.2-267.3-0.2-401,0c-7.9,0-13.7-2.1-17.1-9.5
		c0-10.8,0-21.5,0-32.3c3.4-7.4,9.2-9.8,17.1-9.5c12,0.4,24.1,0,36.1,0.2c3.1,0,5.1-0.8,7.1-3.3c31.3-39.3,62.8-78.5,94.1-117.8
		c2.8-3.5,5.9-6.1,10.5-6.3c5.3-0.2,9.4,2,11.9,6.6c2.7,5,2,9.9-1.5,14.3c-8.2,10.3-16.4,20.6-24.7,30.9
		c-19.3,24.1-38.6,48.2-57.8,72.3c-0.7,0.8-1.7,1.5-1.7,3c84.2,0,168.4,0,252.7,0c0.3-1.7-1.3-2.6-2.2-3.7
		c-27-33.9-54.1-67.7-81.2-101.5c-6.7-8.4-3.8-19.2,5.9-21.6c5.7-1.4,10.2,0.9,13.8,5.3c21.4,26.8,42.8,53.5,64.2,80.3
		c10.3,12.9,20.7,25.8,31,38.8c1.6,2,3.2,2.7,5.7,2.7c12.3-0.1,24.7,0.3,37-0.2c7.9-0.3,13.7,2.1,17.1,9.5
		C518.4,257.1,518.4,267.9,518.4,278.6z"/>
	<path class="st1" d="M112.4,313.6c125.5,0,251.2,0,376.7,0c0.6,1.6-0.3,2.9-0.7,4.2C473,372.2,457.4,426.6,441.9,481
		c-2.2,7.8-6.4,11-14.5,11c-84.4,0-168.8,0-253.3,0c-7.9,0-12.3-3.2-14.4-10.6c-15.7-54.8-31.3-109.6-46.9-164.4
		C112.5,316,111.8,315,112.4,313.6z M243.3,427.5c-0.1-1.3-0.2-2.5-0.5-3.8c-2.1-12.5-4.2-25.1-6.3-37.6c-2.1-12.3-4-24.6-6.2-36.8
		c-1.1-6-6.1-10-11.9-10.2c-5.4-0.2-10.6,3.3-12.4,8.5c-1.2,3.4-0.6,6.7,0,10.1c1.3,7.8,2.6,15.6,3.9,23.4
		c2.8,16.6,5.5,33.2,8.4,49.7c1.2,6.8,7.5,11,14,10.2C238.8,440,243.5,434.3,243.3,427.5z M397.1,353.5c0.3-7.5-3.9-13-10.2-14.3
		c-6-1.3-12.5,2.5-14.5,8.4c-0.5,1.6-0.8,3.3-1.1,5c-3.9,23.4-7.8,46.8-11.7,70.3c-1.7,9.8,2.1,16.7,10.1,18
		c7.8,1.3,13.6-4.1,15.2-13.9c2-12.8,4.3-25.7,6.4-38.5C393.3,376.5,395.3,364.5,397.1,353.5z M313.5,390c0-12.2,0-24.3,0-36.5
		c0-8.6-5.1-14.4-12.6-14.5c-7.6-0.1-12.8,5.7-12.8,14.3c0,24.5,0,48.9,0,73.4c0,8.5,5.3,14.4,12.8,14.3c7.6-0.1,12.6-5.9,12.6-14.5
		C313.5,414.3,313.5,402.2,313.5,390z"/>
</g>
</svg>
