<?xml version="1.0" encoding="utf-8"?>
<!-- Generator: Adobe Illustrator 27.1.1, SVG Export Plug-In . SVG Version: 6.00 Build 0)  -->
<svg version="1.1" id="레이어_1" xmlns="http://www.w3.org/2000/svg" xmlns:xlink="http://www.w3.org/1999/xlink" x="0px"
	 y="0px" viewBox="0 0 600 600" style="enable-background:new 0 0 600 600;" xml:space="preserve">
<style type="text/css">
	.st0{opacity:0.5;}
	.st1{fill:#0093C6;}
</style>
<g class="st0">
	<path class="st1" d="M312.2,56.9c6.7,1.2,13.4,2.2,20,3.7c56,12.9,97.7,59.8,105.1,116.9c2.7,20.6-1.8,39.6-9.4,58.4
		c-14.1,35.1-32.7,67.9-51.7,100.6c-23.8,41-49.6,80.8-73.9,121.5c-0.4,0.6-0.9,1.2-1.6,2.1c-0.7-0.9-1.2-1.5-1.6-2.1
		c-29.6-49.5-61.3-97.8-89.3-148.3c-15.4-27.7-30.2-55.7-40.7-85.8c-11.7-33.6-5.5-65.4,11-95.3c22.9-41.5,58.8-65,106-70.9
		c1.1-0.1,2.2,0,3.1-0.8C297,56.9,304.6,56.9,312.2,56.9z M300.9,256.2c36.4-0.1,65.6-29.4,65.6-65.7s-29.4-65.8-65.6-65.8
		c-36.4-0.1-65.9,29.5-65.9,66.1C235.1,227,264.5,256.2,300.9,256.2z"/>
	<path class="st1" d="M280.8,544.6c-9.8-1-19.6-1.7-29.3-2.9c-35.6-4.4-70.3-12.1-101.8-30.4c-15.6-9.1-29.1-20.5-37.1-37.1
		c-11.2-23.3-6.9-50.4,10.9-69.9c13.7-15,31.2-24.2,49.8-31.5c15.8-6.2,32.2-10.6,48.8-14.1c1.7-0.4,3.1-0.9,4.4,1.2
		c8.5,14.1,17.1,28.2,25.9,42.8c-8.3,1.7-16.2,3.1-24,4.8c-19.8,4.5-39.5,9.4-57.3,19.7c-3.5,2-6.7,4.3-9.5,7.2
		c-8,8.1-8.6,17.5-1.5,26.5c5.9,7.4,14,11.8,22.6,15.4c18.3,7.8,37.5,11.5,57.1,14.1c34.9,4.6,69.9,5.2,105,1.9
		c26.3-2.4,52.3-6.3,76.7-17.1c7.2-3.2,13.8-7.1,19-13.1c8.4-9.7,7.8-20-1.6-28.6c-7.6-7-17-11-26.5-14.6
		c-18.9-7.2-38.6-11.4-58.4-15c-1.5-0.3-3.2-0.2-4.6-1.5c8.5-14.1,17.1-28.1,25.6-42.2c0.7-1.2,1.3-1.9,3-1.6
		c32.8,7.3,65.1,16,91.8,38c16.4,13.5,25.7,30.9,25.2,52.6c-0.5,21-10.6,37.2-26.1,50.3c-19,16.1-41.6,25.3-65.2,32
		c-25.3,7.2-51.1,11.1-77.3,12.5c-1.9,0.1-3.8-0.2-5.6,0.8C307.4,544.6,294.1,544.6,280.8,544.6z"/>
</g>
</svg>
