<?xml version="1.0" encoding="utf-8"?>
<!-- Generator: Adobe Illustrator 27.1.1, SVG Export Plug-In . SVG Version: 6.00 Build 0)  -->
<svg version="1.1" id="레이어_1" xmlns="http://www.w3.org/2000/svg" xmlns:xlink="http://www.w3.org/1999/xlink" x="0px"
	 y="0px" viewBox="0 0 600 600" style="enable-background:new 0 0 600 600;" xml:space="preserve">
<style type="text/css">
	.st0{opacity:0.5;}
	.st1{fill:#0093C6;}
</style>
<g class="st0">
	<path class="st1" d="M203.6,123.3c-2.6,8.2-3.6,16-2,24c3.8,18.4,19.9,32.7,38.6,32.8c39.8,0.3,79.6,0.4,119.4,0
		c26.2-0.3,45-26.4,37.9-52c-1.3-4.5-0.3-5.2,3.9-5c8.5,0.4,17-0.7,25.4,0.7c26.4,4.4,43.7,25.8,43.7,53.9c0,87.9,0,175.8,0,263.8
		c0,9.9,0.9,19.8-1.4,29.6c-5.5,23.4-25.6,40.1-49.6,40.2c-79.7,0.2-159.5,0.3-239.2,0c-29.2-0.1-50.9-23.6-50.9-54.3
		c-0.1-65.4,0-130.9,0-196.3c0-28-0.1-56,0-84c0.1-27.2,17.3-48.3,43.3-52.8C182.7,122.2,193,123.4,203.6,123.3z M337.9,348.1
		C337.9,348.1,337.9,348.1,337.9,348.1c16.5,0,33,0.1,49.5,0c8.9,0,15-5.5,15.1-13.4c0.1-7.8-6.1-13.7-14.8-13.8
		c-33-0.1-66.1,0-99.1,0c-3,0-5.9,0.6-8.5,2.2c-4.9,3.2-7.2,9.1-5.8,14.8c1.6,6.1,6.5,10.2,13.1,10.2
		C304.2,348.2,321.1,348.1,337.9,348.1z M338.2,401.9c-16.8,0-33.7-0.1-50.5,0c-8,0.1-14,6.1-13.9,13.6c0.1,7.3,5.9,13.5,13.6,13.5
		c33.8,0.1,67.6,0.1,101.4,0c6,0,10.5-3.1,12.7-8.8c3.5-9.1-3.1-18.2-13.4-18.3C371.5,401.8,354.9,401.9,338.2,401.9z M338.2,267.3
		c16.4,0,32.7,0,49.1,0c7.6,0,12.4-3.2,14.5-9.1c3.2-9.2-3.4-17.9-13.8-18c-28.3-0.1-56.6,0-84.9,0c-5.5,0-11-0.1-16.5,0.1
		c-5.9,0.3-10.5,4.1-12.1,9.6c-2.6,9,3.7,17.2,13.8,17.3C304.8,267.5,321.5,267.3,338.2,267.3z M222,348.1c3.8,0,7.5,0.1,11.3,0
		c7.5-0.3,13.2-5.8,13.6-13c0.4-6.8-4.9-13.4-12.1-13.9c-8.4-0.5-17-0.6-25.4,0c-7.3,0.5-12.3,7.1-11.9,14
		c0.4,7.1,5.9,12.6,13.2,12.9C214.4,348.3,218.2,348.1,222,348.1z M221.9,429.2c3.6,0,7.2,0.1,10.8,0c8-0.2,14.1-6.1,14.1-13.5
		c0.1-7.5-5.9-13.5-13.9-13.7c-7.2-0.2-14.5-0.2-21.7,0c-8,0.2-14,6.2-13.9,13.7c0.1,7.3,5.9,13.2,13.7,13.5
		C214.7,429.3,218.3,429.2,221.9,429.2z M222,267.3c3.9,0,7.9,0.2,11.8,0c7.5-0.5,13.1-6.3,13.2-13.4c0-7.3-5.7-13.3-13.5-13.5
		c-7.5-0.2-15.1-0.2-22.6,0c-7.6,0.2-13.2,5.9-13.3,13.1c-0.2,7.3,5.4,13.3,13.2,13.8C214.4,267.5,218.2,267.3,222,267.3z"/>
	<path class="st1" d="M299.8,157.6c-18.6,0-37.1,0-55.7,0c-16.1,0-24.5-12.6-18.5-27.6c3.7-9.3,7.4-18.7,11.2-28
		c3.8-9.4,9.8-13.5,20-13.5c28.8,0,57.6,0,86.4,0c10.2,0,16.3,4,20,13.4c3.9,9.6,7.7,19.2,11.5,28.9c5.5,14.2-3,26.7-18.2,26.8
		C337.5,157.7,318.6,157.6,299.8,157.6z"/>
</g>
</svg>
