<?xml version="1.0" encoding="utf-8"?>
<!-- Generator: Adobe Illustrator 27.1.1, SVG Export Plug-In . SVG Version: 6.00 Build 0)  -->
<svg version="1.1" id="레이어_1" xmlns="http://www.w3.org/2000/svg" xmlns:xlink="http://www.w3.org/1999/xlink" x="0px"
	 y="0px" viewBox="0 0 600 600" style="enable-background:new 0 0 600 600;" xml:space="preserve">
<style type="text/css">
	.st0{opacity:0.5;}
	.st1{fill:#0093C6;}
</style>
<g class="st0">
	<path class="st1" d="M56.3,452.3c0-36.2,0-72.3,0-108.5c4.5,0.2,8.8-1,13.1-1.9c25.8-5.1,40.8-31.6,32-56.3
		c-6.4-18.1-23.3-29.1-45.1-29.4c0-36.2,0-72.3,0-108.5c106.9,0,213.8,0,320.6-0.1c4,0,5,1,4.9,4.9c-0.3,14.3,0,28.5-0.2,42.8
		c0,3.2,0.7,4.5,4.2,4.3c6.7-0.3,13.3-0.2,20,0c3.4,0.1,4.6-0.7,4.6-4.4c-0.2-14.3,0.1-28.5-0.2-42.8c-0.1-4.1,1.2-4.9,5-4.8
		c41.2,0.1,82.5,0.1,123.7,0c3.7,0,4.7,0.9,4.7,4.7c-0.2,31.4-0.1,62.8-0.1,94.2c0,9.4,0,9.4-9.2,10.8
		c-20.6,3.1-34.5,16.5-37.9,36.4c-3,17.4,6.2,35.5,22.3,44.1c6.4,3.5,13.5,4.7,20.5,5.6c3.4,0.4,4.3,1.6,4.3,5.1
		c-0.1,33.1-0.1,66.3,0,99.4c0,3.6-0.9,4.5-4.5,4.4c-41.5-0.1-83.1-0.1-124.6,0c-3.8,0-4.3-1.3-4.3-4.6c0.2-14.4,0-28.9,0.1-43.3
		c0-3-0.8-4.2-3.9-4.1c-6.8,0.2-13.6,0.2-20.5,0c-3.3-0.1-4.3,0.8-4.3,4.2c0.2,14-0.2,27.9,0.2,41.9c0.1,4.8-1.1,5.9-5.9,5.9
		C269.4,452.2,162.9,452.3,56.3,452.3z M410.4,256.7c0-8.4-0.1-16.8,0-25.2c0-2.4-0.6-3.4-3.2-3.4c-7.4,0.1-14.9,0.1-22.3,0
		c-2.6,0-3.1,1.1-3.1,3.4c0.1,16.8,0.1,33.6,0,50.4c0,2.9,1.2,3.4,3.7,3.4c7.1-0.1,14.3-0.2,21.4,0c3.1,0.1,3.7-1.2,3.6-3.9
		C410.3,273.2,410.4,265,410.4,256.7z M381.8,343.4c0,8.4,0.1,16.8,0,25.2c0,2.4,0.7,3.4,3.2,3.3c7.4-0.1,14.9-0.1,22.3,0
		c2.7,0.1,3.1-1.2,3.1-3.5c-0.1-16.8-0.1-33.6,0-50.4c0-2.4-0.7-3.4-3.2-3.3c-7.3,0.1-14.6,0.2-21.9,0c-3.2-0.1-3.6,1.3-3.6,4
		C381.9,326.9,381.8,335.2,381.8,343.4z"/>
</g>
</svg>
