<?xml version="1.0" encoding="utf-8"?>
<!-- Generator: Adobe Illustrator 27.1.1, SVG Export Plug-In . SVG Version: 6.00 Build 0)  -->
<svg version="1.1" id="레이어_1" xmlns="http://www.w3.org/2000/svg" xmlns:xlink="http://www.w3.org/1999/xlink" x="0px"
	 y="0px" viewBox="0 0 600 600" style="enable-background:new 0 0 600 600;" xml:space="preserve">
<style type="text/css">
	.st0{opacity:0.5;}
	.st1{fill:#0093C6;}
</style>
<g class="st0">
	<path class="st1" d="M187.8,76.8c39.3,0,78.7,0,118,0c9.8,0,13,3.3,13,13.1c0,7.9,0,15.9,0,23.8c0,9.1-3.5,12.6-12.6,12.6
		c-63.5,0-127,0-190.4,0c-15.9,0-31.7,0-47.6,0c-8.8,0-12.3-3.6-12.3-12.4c0-8.4,0-16.9,0-25.3c0-8.2,3.7-11.8,11.8-11.8
		C107.8,76.8,147.8,76.8,187.8,76.8z"/>
	<path class="st1" d="M207.1,205.7c-39.3,0-78.6,0-118,0c-10.1,0-13.3-3.2-13.3-13.3c0-8.3,0-16.5,0-24.8
		c0.1-7.6,3.7-11.4,11.1-11.4c80.1,0,160.3,0,240.4,0c7.6,0,11.3,3.7,11.3,11.3c0.1,8.8,0,17.5,0,26.3c0,8.4-3.7,12-12.1,12
		C286.7,205.7,246.9,205.7,207.1,205.7z"/>
	<path class="st1" d="M177.5,235.5c39.3,0,78.7,0,118,0c10.8,0,15.7,6.2,13.4,16.7c-0.3,1.5-1.4,2.2-2.3,3
		c-9.8,8.2-18.6,17.4-26.2,27.7c-1.7,2.4-3.8,2.1-6.1,2.2c-30.6,0-61.2,0-91.8,0c-41.2,0-82.3,0-123.5,0c-9.8,0-13.1-3.2-13.1-13
		c0-8.3,0-16.5,0-24.8c0-8.1,3.7-11.7,11.9-11.7C97.8,235.5,137.6,235.5,177.5,235.5z"/>
	<path class="st1" d="M177.2,523.2c-39.3,0-78.7,0-118,0c-9.9,0-13.1-3.2-13.1-13c0-8.3,0-16.5,0-24.8c0-8.1,3.7-11.8,11.9-11.8
		c70.1,0,140.2,0,210.3-0.1c2.8,0,4.5,0.9,6,3.2c8.7,13.4,19.1,25.3,31.3,35.6c3.7,3.1,3.5,5.5-0.3,8.6c-2.6,2.1-5.7,2.2-8.9,2.2
		C256.5,523.2,216.9,523.2,177.2,523.2z"/>
	<path class="st1" d="M260.6,315.1c0.3,1.5-0.5,2.6-1,3.8c-5.5,13.3-9.5,27.1-11.3,41.4c-0.4,2.8-1.1,4.2-4.5,4.2
		c-55.5-0.1-111.1-0.1-166.6-0.1c-7.2,0-11.1-3.9-11.2-11c-0.1-9.3-0.1-18.5,0-27.8c0.1-6.9,4-10.8,10.8-10.8c60.7,0,121.3,0,182,0
		C259.3,314.9,260,315,260.6,315.1z"/>
	<path class="st1" d="M174.5,443.8c-25.4,0-50.9,0-76.3,0c-9.1,0-12.5-3.4-12.5-12.6c0-8.6-0.1-17.2,0-25.8
		c0.1-7.2,3.9-11.2,11-11.2c48.7-0.1,97.5,0,146.2-0.1c3,0,4,0.9,4.2,3.8c1,14.6,4,28.8,9,42.5c1.5,4.1-1.1,3.4-3.3,3.4
		C226.7,443.8,200.6,443.8,174.5,443.8z"/>
	<path class="st1" d="M551.5,358.4c-15-74.7-83.2-122.4-158.8-111c-73.5,11-126.4,82.8-115.2,156.3
		c11.3,74.8,76.6,125.8,151.8,118.8c55.1-5.2,103.3-45,118.9-98.2c2.8-9.5,4.1-19.3,5.8-29c0-7.3,0-14.6,0-21.8
		C553.2,368.4,552.5,363.4,551.5,358.4z M487.6,394.7h-62.2V457h-20.7v-62.2h-62.2V374h62.2v-62.2h20.7V374h62.2V394.7z"/>
</g>
</svg>
