<?xml version="1.0" encoding="utf-8"?>
<!-- Generator: Adobe Illustrator 27.1.1, SVG Export Plug-In . SVG Version: 6.00 Build 0)  -->
<svg version="1.1" id="레이어_1" xmlns="http://www.w3.org/2000/svg" xmlns:xlink="http://www.w3.org/1999/xlink" x="0px"
	 y="0px" viewBox="0 0 600 600" style="enable-background:new 0 0 600 600;" xml:space="preserve">
<style type="text/css">
	.st0{opacity:0.5;}
	.st1{fill:#0093C6;}
</style>
<g class="st0">
	<path class="st1" d="M222.2,330.7c-47.6,0-95.2,0-142.8,0c-13.4,0-18.9-5.4-18.9-18.6c0-59.3,0-118.7,0-178
		c0-12.6,5.6-18.4,18.2-18.4c95.4,0,190.8,0,286.2,0c12.7,0,18.3,5.7,18.3,18.2c0,59.5,0,119,0,178.5c0,12.9-5.5,18.3-18.6,18.3
		C317,330.7,269.6,330.7,222.2,330.7z"/>
	<path class="st1" d="M185.4,362.2c2-1,4.1-0.5,6.1-0.5c57.8,0,115.5,0,173.3,0c24.4,0,42.6-13.7,47.9-36c1.2-4.8,1.3-9.7,1.3-14.6
		c0-37.6,0.1-75.3-0.1-112.9c0-4.3,1-5.8,5.5-5.6c7.9,0.4,15.8,0.5,23.6,0c15.6-0.9,28.6,5.8,40.9,14c17.5,11.6,32.6,25.8,45.1,42.8
		c7,9.6,10.8,19.8,10.6,32.1c-0.5,41.1-0.2,82.3-0.2,123.4c0,12.5-5.8,18.2-18.3,18.2c-4.9,0-10.4,1.3-14.5-0.4
		c-4.5-1.9-3.6-8.4-5.4-12.7c-12.8-31.7-43.6-51-78.2-48.8c-31.7,2-60.3,25.9-68.4,57.8c-0.9,3.5-2.3,4.3-5.7,4.3
		c-33.6-0.1-67.2-0.1-100.8-0.1c-2.5,0-4.3,0.1-5.3-3.4c-8-29-26.5-47.8-55.4-56.3C186.8,363.2,185.7,363.4,185.4,362.2z
		 M439.2,269.2c0,11.4,0.1,22.8,0,34.1c0,2.9,0.5,4.4,4,4.4c22.6-0.1,45.2-0.1,67.7,0c3.1,0,3.8-1.2,3.7-4
		c-0.2-6.5-1.1-12.9-2.5-19.2c-7.4-34.4-31-53.6-66.1-54.3c-4.9-0.1-7.2,0.7-6.9,6.5C439.6,247.5,439.2,258.4,439.2,269.2z"/>
	<path class="st1" d="M168.1,484.4c-25.6,0.1-46.5-20.7-46.6-46.2c-0.1-25.4,20.9-46.5,46.3-46.6c25.5-0.1,46.4,20.7,46.6,46.3
		C214.5,463.4,193.7,484.3,168.1,484.4z"/>
	<path class="st1" d="M429.2,484.4c-25.7,0-46.3-20.7-46.3-46.4c0-25.5,20.9-46.4,46.4-46.4c25.6,0,46.3,20.8,46.3,46.5
		C475.5,463.8,454.9,484.4,429.2,484.4z"/>
	<path class="st1" d="M60.4,359.9c30.2,3.6,60.2,0.5,90.3,2.6c-3.8,1.3-7.8,2.4-11.5,4c-23.5,10-38.9,27.3-45.8,51.9
		c-1,3.5-2.1,5-5.9,4.7c-4.2-0.4-8.4,0.1-12.6-0.1c-7.6-0.4-14.3-6-14.5-13.4C60.1,392.9,60.4,376.1,60.4,359.9z"/>
</g>
</svg>
