<?xml version="1.0" encoding="utf-8"?>
<!-- Generator: Adobe Illustrator 27.1.1, SVG Export Plug-In . SVG Version: 6.00 Build 0)  -->
<svg version="1.1" id="레이어_1" xmlns="http://www.w3.org/2000/svg" xmlns:xlink="http://www.w3.org/1999/xlink" x="0px"
	 y="0px" viewBox="0 0 600 600" style="enable-background:new 0 0 600 600;" xml:space="preserve">
<style type="text/css">
	.st0{opacity:0.5;}
	.st1{fill:#0093C6;}
</style>
<g class="st0">
	<path class="st1" d="M286,76.8c9.3,0,18.6,0,27.9,0c1.2,0.8,2.5,0.7,3.8,0.8c8.7,0.6,17.3,1.8,25.9,3.5
		C462.1,104.5,540.7,218.9,520,338c-18,103.4-105,180.5-209.7,185c-55.4,2.4-105.3-13.5-148.8-48.1c-44.3-35.3-71.5-81-81.4-136.8
		c-1.4-8-2.2-16.1-3.3-24.1c0-9.3,0-18.6,0-27.9c0.6-5.3,1.2-10.6,1.9-15.9c6.4-45.4,24.6-85.4,55.4-119.4
		C168.6,112.7,211.2,89,262,80.2C269.9,78.7,278,77.9,286,76.8z M223.2,299.8c0,31.2,0.1,62.5-0.1,93.7c0,3.4,0.9,4.4,4.3,4.3
		c12.8-0.2,25.6-0.2,38.3,0c3.6,0.1,4.6-0.9,4.6-4.5c-0.2-19.2,0-38.4-0.2-57.5c0-3.7,1.1-4.5,4.6-4.5c9.6,0.2,19.2,0.1,28.8,0
		c8.9-0.1,17.7-1.1,26.2-3.6c23.6-6.9,40.9-20.6,45.7-45.7c4.9-25.6-2.1-48-23.2-64.4c-14-10.9-30.6-15.1-48.1-15.2
		c-25.6-0.2-51.1,0-76.7-0.1c-3.4,0-4.3,0.9-4.3,4.3C223.2,237.6,223.2,268.7,223.2,299.8z"/>
	<path class="st1" d="M289.1,295c-5.4,0-10.7-0.1-16.1,0c-2,0-2.8-0.6-2.8-2.7c0.1-17,0.1-34,0-51c0-2.3,1-2.6,2.9-2.6
		c10.6,0.1,21.2-0.2,31.8,0.2c12.2,0.5,22,10.3,23.7,23.3c0.6,4.3,0.7,8.7-0.1,13c-2,11.4-10.5,18.8-22.9,19.5
		c-5.5,0.3-11,0.1-16.5,0.1C289.1,294.9,289.1,294.9,289.1,295z"/>
</g>
</svg>
