<?xml version="1.0" encoding="utf-8"?>
<!-- Generator: Adobe Illustrator 27.1.0, SVG Export Plug-In . SVG Version: 6.00 Build 0)  -->
<svg version="1.1" id="레이어_1" xmlns="http://www.w3.org/2000/svg" xmlns:xlink="http://www.w3.org/1999/xlink" x="0px"
	 y="0px" viewBox="0 0 600 600" style="enable-background:new 0 0 600 600;" xml:space="preserve">
<style type="text/css">
	.st0{fill:#5A5A5A;}
</style>
<g>
	<path class="st0" d="M300,553.5c-67.7,0-131.4-26.4-179.3-74.2S46.5,367.7,46.5,300s26.4-131.4,74.2-179.3
		C168.6,72.9,232.3,46.5,300,46.5c67.7,0,131.4,26.4,179.3,74.2c47.9,47.9,74.2,111.5,74.2,179.3s-26.4,131.4-74.2,179.3
		S367.7,553.5,300,553.5z M300,71.5C174,71.5,71.5,174,71.5,300S174,528.5,300,528.5S528.5,426,528.5,300S426,71.5,300,71.5z"/>
	<path class="st0" d="M148.8,412.5c-8.9-12-16.3-24.8-22-38.2c-10.1-23.5-15.3-48.5-15.3-74.3c0-103.9,84.6-188.5,188.5-188.5
		c37.8,0,74.2,11.1,105.4,32.2l-14,20.7c-27-18.3-58.7-28-91.4-28c-90.2,0-163.5,73.3-163.5,163.5c0,22.4,4.5,44,13.3,64.4
		c4.9,11.6,11.3,22.7,19.1,33.1L148.8,412.5z"/>
	<path class="st0" d="M300,488.5v-25c90.2,0,163.5-73.3,163.5-163.5c0-14.2-1.8-28.2-5.4-41.6l24.2-6.4c4.1,15.5,6.2,31.7,6.2,48
		C488.5,403.9,403.9,488.5,300,488.5z"/>
</g>
<g>
	<path class="st0" d="M349.5,296.6l-13.8,49.1h-21.2l-11.2-49.1h-7.4l-10.5,49.1H264l-13.8-49.1h-2.5c-1.8,0-3.8,0-6.2,0.1
		c-2.4,0.1-4.5,0.3-6.2,0.6v-13.4c1.7,0.3,3.5,0.4,5.5,0.6c2,0.1,4,0.2,5.9,0.2l-8.2-30.4h18.6l8,30.4h17.3l6.3-30.4H311l6.5,30.4
		h17.1l8.2-30.4h18.7l-8.4,30.4c1.8,0,3.7-0.1,5.9-0.2c2.2-0.1,4.1-0.3,5.8-0.6v13.4c-1.8-0.3-4-0.5-6.5-0.6
		c-2.5-0.1-4.6-0.1-6.4-0.1H349.5z M274.4,320.3l5.1-23.7h-11.3L274.4,320.3z M298.4,284.7h2.5l-1.3-5.5L298.4,284.7z M325.2,320.5
		l6.4-23.9h-11.5L325.2,320.5z"/>
</g>
</svg>
