<?xml version="1.0" encoding="utf-8"?>
<!-- Generator: Adobe Illustrator 27.1.0, SVG Export Plug-In . SVG Version: 6.00 Build 0)  -->
<svg version="1.1" id="레이어_1" xmlns="http://www.w3.org/2000/svg" xmlns:xlink="http://www.w3.org/1999/xlink" x="0px"
	 y="0px" viewBox="0 0 600 600" style="enable-background:new 0 0 600 600;" xml:space="preserve">
<style type="text/css">
	.st0{fill:#5A5A5A;}
</style>
<g>
	<polygon class="st0" points="495.5,554.5 104.5,554.5 104.5,108.4 208,108.4 208,133.4 129.5,133.4 129.5,529.5 470.5,529.5 
		470.5,133.4 392,133.4 392,108.4 495.5,108.4 	"/>
	<path class="st0" d="M404.5,161.5h-209v-82h48.3c10.8-20.7,32.4-34,56.2-34c23.8,0,45.4,13.3,56.2,34h48.3V161.5z M220.5,136.5h159
		v-32h-40.2l-2.9-8.3c-5.4-15.4-20-25.7-36.3-25.7c-16.3,0-30.9,10.3-36.3,25.7l-2.9,8.3h-40.2V136.5z"/>
	<rect x="189" y="213.5" class="st0" width="130" height="25"/>
	<rect x="189" y="270.3" class="st0" width="222" height="25"/>
	<rect x="189" y="327" class="st0" width="222" height="25"/>
	<rect x="189" y="383.8" class="st0" width="172" height="25"/>
	<rect x="189" y="440.5" class="st0" width="222" height="25"/>
</g>
</svg>
