<?xml version="1.0" encoding="utf-8"?>
<!-- Generator: Adobe Illustrator 27.1.0, SVG Export Plug-In . SVG Version: 6.00 Build 0)  -->
<svg version="1.1" id="레이어_1" xmlns="http://www.w3.org/2000/svg" xmlns:xlink="http://www.w3.org/1999/xlink" x="0px"
	 y="0px" viewBox="0 0 600 600" style="enable-background:new 0 0 600 600;" xml:space="preserve">
<style type="text/css">
	.st0{fill:#5A5A5A;}
</style>
<g>
	<path class="st0" d="M219.4,489.8c-30.9,0-56-25.1-56-56s25.1-56,56-56s56,25.1,56,56S250.3,489.8,219.4,489.8z M219.4,404
		c-16.4,0-29.8,13.4-29.8,29.8c0,16.4,13.4,29.8,29.8,29.8c16.4,0,29.8-13.4,29.8-29.8C249.3,417.4,235.9,404,219.4,404z"/>
	<circle class="st0" cx="219.4" cy="433.8" r="16.3"/>
	<path class="st0" d="M466.5,489.8c-30.9,0-56-25.1-56-56s25.1-56,56-56s56,25.1,56,56S497.4,489.8,466.5,489.8z M466.5,404
		c-16.4,0-29.8,13.4-29.8,29.8c0,16.4,13.4,29.8,29.8,29.8c16.4,0,29.8-13.4,29.8-29.8C496.4,417.4,483,404,466.5,404z"/>
	<circle class="st0" cx="466.5" cy="433.8" r="16.3"/>
	<polygon class="st0" points="566.1,448.2 509.4,447.9 509.5,421.8 540,421.9 540,321.7 499.1,207.8 413.7,207.8 413.7,332.5 
		141.2,332.5 141.2,420.8 176.6,420.8 176.5,447 115,446.9 115,306.4 387.6,306.4 387.6,181.7 517.5,181.7 566.1,317.2 	"/>
	
		<rect x="330" y="353.8" transform="matrix(1.945485e-03 -1 1 1.945485e-03 -91.996 776.5823)" class="st0" width="26.2" height="161.2"/>
	<polygon class="st0" points="413.7,332.4 128.1,332.4 128.1,306.3 387.6,306.3 387.6,136.4 128.1,136.4 128.1,110.2 413.7,110.2 	
		"/>
	<rect x="433.1" y="306.4" class="st0" width="120" height="26.2"/>
	<rect x="33.9" y="152.1" class="st0" width="172.6" height="26.2"/>
	<rect x="68.2" y="203.5" class="st0" width="138.3" height="26.2"/>
	<rect x="97.9" y="255.1" class="st0" width="108.6" height="26.2"/>
</g>
</svg>
