<?xml version="1.0" encoding="utf-8"?>
<!-- Generator: Adobe Illustrator 27.1.0, SVG Export Plug-In . SVG Version: 6.00 Build 0)  -->
<svg version="1.1" id="레이어_1" xmlns="http://www.w3.org/2000/svg" xmlns:xlink="http://www.w3.org/1999/xlink" x="0px"
	 y="0px" viewBox="0 0 600 600" style="enable-background:new 0 0 600 600;" xml:space="preserve">
<style type="text/css">
	.st0{fill:#5A5A5A;}
</style>
<g>
	<polygon class="st0" points="555,457 445.5,457 445.5,432 530,432 530,241 70,241 70,432 154.5,432 154.5,457 45,457 45,216 
		555,216 	"/>
	<path class="st0" d="M447.5,542h-295V334h295V542z M177.5,517h245V359h-245V517z"/>
	<path class="st0" d="M465,241H135V58h330V241z M160,216h280V83H160V216z"/>
	<rect x="94" y="266.5" class="st0" width="25" height="37.5"/>
	<rect x="211.4" y="402.5" class="st0" width="49.2" height="25"/>
	<rect x="211.4" y="446.5" class="st0" width="95.6" height="25"/>
	<rect x="274.5" y="402.5" class="st0" width="113.2" height="25"/>
	<rect x="320.9" y="446.5" class="st0" width="66.8" height="25"/>
</g>
</svg>
