<?xml version="1.0" encoding="utf-8"?>
<!-- Generator: Adobe Illustrator 27.1.0, SVG Export Plug-In . SVG Version: 6.00 Build 0)  -->
<svg version="1.1" id="레이어_1" xmlns="http://www.w3.org/2000/svg" xmlns:xlink="http://www.w3.org/1999/xlink" x="0px"
	 y="0px" viewBox="0 0 600 600" style="enable-background:new 0 0 600 600;" xml:space="preserve">
<style type="text/css">
	.st0{fill:#5A5A5A;}
</style>
<g>
	<path class="st0" d="M300,554c-67.8,0-131.6-26.4-179.6-74.4C72.4,431.6,46,367.8,46,300s26.4-131.6,74.4-179.6
		C168.4,72.4,232.2,46,300,46s131.6,26.4,179.6,74.4c48,48,74.4,111.8,74.4,179.6s-26.4,131.6-74.4,179.6
		C431.6,527.6,367.8,554,300,554z M300,71C173.7,71,71,173.7,71,300s102.7,229,229,229c126.3,0,229-102.7,229-229S426.3,71,300,71z"
		/>
</g>
<path class="st0" d="M259.1,394.7l-90.3-90.3l17.3-17.3l73,73l154.8-154.8l17.3,17.3L259.1,394.7z"/>
</svg>
