<?xml version="1.0" encoding="utf-8"?>
<!-- Generator: Adobe Illustrator 27.1.0, SVG Export Plug-In . SVG Version: 6.00 Build 0)  -->
<svg version="1.1" id="레이어_1" xmlns="http://www.w3.org/2000/svg" xmlns:xlink="http://www.w3.org/1999/xlink" x="0px"
	 y="0px" viewBox="0 0 600 600" style="enable-background:new 0 0 600 600;" xml:space="preserve">
<style type="text/css">
	.st0{fill:#5A5A5A;}
</style>
<g>
	<path class="st0" d="M553,549.2H47V191c0-77.4,62.8-140.2,140.2-140.2H553V549.2z M72,520.5h456v-441H187c-63.5,0-115,51.5-115,115
		V520.5z"/>
	<path class="st0" d="M186.5,261.9c-35.8,0-65-29.2-65-65s29.2-65,65-65s65,29.2,65,65S222.4,261.9,186.5,261.9z M186.5,157.9
		c-21.5,0-39,17.5-39,39s17.5,39,39,39s39-17.5,39-39S208,157.9,186.5,157.9z"/>
</g>
</svg>
