<?xml version="1.0" encoding="utf-8"?>
<!-- Generator: Adobe Illustrator 27.1.0, SVG Export Plug-In . SVG Version: 6.00 Build 0)  -->
<svg version="1.1" id="레이어_1" xmlns="http://www.w3.org/2000/svg" xmlns:xlink="http://www.w3.org/1999/xlink" x="0px"
	 y="0px" viewBox="0 0 600 600" style="enable-background:new 0 0 600 600;" xml:space="preserve">
<style type="text/css">
	.st0{fill:#5A5A5A;}
</style>
<g>
	<g>
		<path class="st0" d="M227.6,553.6c-22.6,0-40.9-18.3-40.9-40.9c0-22.6,18.3-40.9,40.9-40.9c22.6,0,40.9,18.3,40.9,40.9
			C268.5,535.3,250.2,553.6,227.6,553.6z M227.6,496.8c-8.8,0-15.9,7.1-15.9,15.9c0,8.8,7.1,15.9,15.9,15.9
			c8.8,0,15.9-7.1,15.9-15.9C243.5,503.9,236.4,496.8,227.6,496.8z"/>
		<path class="st0" d="M402.4,553.6c-22.6,0-40.9-18.3-40.9-40.9c0-22.6,18.3-40.9,40.9-40.9c22.6,0,40.9,18.3,40.9,40.9
			C443.3,535.3,425,553.6,402.4,553.6z M402.4,496.8c-8.8,0-15.9,7.1-15.9,15.9c0,8.8,7.1,15.9,15.9,15.9c8.8,0,15.9-7.1,15.9-15.9
			C418.3,503.9,411.2,496.8,402.4,496.8z"/>
	</g>
	<polygon class="st0" points="463.5,474.4 168.8,474.4 168.8,71.4 136.5,71.4 136.5,46.4 193.8,46.4 193.8,449.4 463.5,449.4 	"/>
	<path class="st0" d="M440.7,474.4H168.8v-229h271.9V474.4z M193.8,449.4h221.9v-179H193.8V449.4z"/>
	<rect x="292.2" y="257.9" class="st0" width="25" height="46"/>
	<path class="st0" d="M368.2,270.4H168.8v-167h199.4V270.4z M193.8,245.4h149.4v-117H193.8V245.4z"/>
	<rect x="256" y="115.9" class="st0" width="25" height="31.3"/>
</g>
</svg>
