<?xml version="1.0" encoding="utf-8"?>
<!-- Generator: Adobe Illustrator 27.1.1, SVG Export Plug-In . SVG Version: 6.00 Build 0)  -->
<svg version="1.1" id="레이어_1" xmlns="http://www.w3.org/2000/svg" xmlns:xlink="http://www.w3.org/1999/xlink" x="0px"
	 y="0px" viewBox="0 0 600 600" style="enable-background:new 0 0 600 600;" xml:space="preserve">
<style type="text/css">
	.st0{fill:#0093C6;}
	.st1{fill:#FFFFFF;}
</style>
<circle class="st0" cx="300" cy="300" r="275.3"/>
<g>
	<path class="st1" d="M433.2,317.5c0.7-5.6,1.1-11.4,1.1-17.5c0-6-0.4-11.9-1.3-17.5l37.9-29.5c3.4-2.6,4.3-7.6,2.2-11.4l-35.8-61.9
		c-2.2-4.1-6.9-5.4-11-4.1l-44.6,17.9c-9.3-7.1-19.2-13.1-30.2-17.5l-6.7-47.4c-0.7-4.5-4.5-7.6-9-7.6h-71.6c-4.5,0-8,3.2-8.8,7.6
		l-6.7,47.4c-11,4.5-21.1,10.6-30.2,17.5l-44.6-17.9c-4.1-1.5-8.8,0-11,4.1l-35.6,61.9c-2.2,3.9-1.5,8.8,2.2,11.4l37.9,29.5
		c-0.9,5.6-1.7,11.8-1.7,17.5s0.4,11.9,1.3,17.5L129.1,347c-3.4,2.6-4.3,7.6-2.2,11.4l35.8,61.9c2.2,4.1,6.9,5.4,11,4.1l44.6-17.9
		c9.3,7.1,19.2,13.1,30.2,17.5l6.7,47.4c0.9,4.5,4.5,7.6,9,7.6h71.6c4.5,0,8.2-3.2,8.8-7.6l6.7-47.4c11-4.5,21.1-10.4,30.2-17.5
		l44.6,17.9c4.1,1.5,8.8,0,11-4.1l35.8-61.9c2.2-4.1,1.3-8.8-2.2-11.4L433.2,317.5z M300,367.2c-36.9,0-67.2-30.2-67.2-67.2
		s30.2-67.2,67.2-67.2s67.2,30.2,67.2,67.2S336.9,367.2,300,367.2z"/>
</g>
</svg>
