<?xml version="1.0" encoding="UTF-8"?>
<svg id="_레이어_2" data-name="레이어 2" xmlns="http://www.w3.org/2000/svg" xmlns:xlink="http://www.w3.org/1999/xlink" viewBox="0 0 123.44 19.06">
  <defs>
    <style>
      .cls-1 {
        fill: none;
        stroke: url(#_무제_그라디언트_17-2);
        stroke-miterlimit: 10;
        stroke-width: 2px;
      }

      .cls-2 {
        fill: url(#_무제_그라디언트_17);
      }
    </style>
    <linearGradient id="_무제_그라디언트_17" data-name="무제 그라디언트 17" x1="0" y1="3.75" x2="21.06" y2="3.75" gradientUnits="userSpaceOnUse">
      <stop offset=".01" stop-color="#6060cc"/>
      <stop offset="1" stop-color="#3270d6"/>
    </linearGradient>
    <linearGradient id="_무제_그라디언트_17-2" data-name="무제 그라디언트 17" x1=".34" y1="14.32" x2="11.76" y2="14.32" xlink:href="#_무제_그라디언트_17"/>
  </defs>
  <g id="_레이어_1-2" data-name="레이어 1">
    <g>
      <path class="cls-2" d="m0,7.5V0h16.53c2.5,0,4.54,2.37,4.54,5.28v2.22"/>
      <path class="cls-1" d="m8.99,10.58h1.78v7.49h-4.15c-2.91,0-5.28-2.37-5.28-5.28v-2.2h7.65Z"/>
      <g>
        <path d="m26.44,3.89h4.82c3.26,0,5.17,1.82,5.17,4.59s-1.91,4.62-5.17,4.62h-2.02v3.34h-2.8V3.89Zm4.7,6.73c1.56,0,2.49-.74,2.49-2.14s-.94-2.11-2.49-2.11h-1.89v4.25h1.89Z"/>
        <path d="m45.4,16.44l-2.43-3.96h-2.23v3.96h-2.8V3.89h5.05c3.19,0,5.05,1.69,5.05,4.3,0,1.72-.82,3.05-2.29,3.74l2.91,4.51h-3.25Zm-4.67-6.44h2.12c1.48,0,2.37-.63,2.37-1.82s-.89-1.82-2.37-1.82h-2.12v3.63Z"/>
        <path d="m52.74,3.89v12.55h-2.8V3.89h2.8Z"/>
        <path d="m54.96,3.89h2.34l6.27,7.54V3.74h2.8v12.55h-2.34l-6.27-7.54v7.7h-2.8V3.89Z"/>
        <path d="m78.83,6.37h-4.08v10.07h-2.8V6.37h-4.08v-2.48h10.96v2.48Z"/>
        <path d="m86.2,14.01h-4.87l-.88,2.43h-2.89l4.87-12.55h2.91l4.86,12.55h-3.12l-.88-2.43Zm-.86-2.43l-1.57-4.37-1.57,4.37h3.14Z"/>
        <path d="m91.46,3.89h5.45c2.79,0,4.36,1.45,4.36,3.74,0,.89-.6,1.91-1.46,2.23,1.2.38,2.05,1.55,2.05,2.77,0,2.32-1.66,3.8-4.48,3.8h-5.91V3.89Zm5.33,5.08c1.06,0,1.68-.46,1.68-1.34s-.62-1.35-1.68-1.35h-2.52v2.69h2.52Zm.46,5.08c1.11,0,1.8-.49,1.8-1.42s-.69-1.42-1.8-1.42h-2.99v2.83h2.99Z"/>
        <path d="m106.3,3.89v10.07h6.27v2.48h-9.07V3.89h2.8Z"/>
        <path d="m113.98,3.89h9.33v2.43h-6.53v2.56h5.99v2.43h-5.99v2.69h6.67v2.43h-9.47V3.89Z"/>
      </g>
    </g>
  </g>
</svg>