<?xml version="1.0" encoding="utf-8"?>
<!-- Generator: Adobe Illustrator 27.1.1, SVG Export Plug-In . SVG Version: 6.00 Build 0)  -->
<svg version="1.1" id="레이어_1" xmlns="http://www.w3.org/2000/svg" xmlns:xlink="http://www.w3.org/1999/xlink" x="0px"
	 y="0px" viewBox="0 0 600 600" style="enable-background:new 0 0 600 600;" xml:space="preserve">
<style type="text/css">
	.st0{fill:#E95664;}
</style>
<g>
	<path class="st0" d="M24.7,317.2c0-11.5,0-22.9,0-34.4c0.3-1.7,0.8-3.5,0.9-5.2c1-13.4,3-26.7,6.1-39.8
		C66.8,90.2,210.3-0.5,358.8,30.9c121.6,25.8,212.4,134,216.4,258.1c2.3,73.2-20.3,137.9-68.8,193c-42.4,48.2-95.6,77.9-159,89.1
		c-10,1.8-20.1,2.8-30.2,4.2c-11.5,0-22.9,0-34.4,0c-1.4-0.3-2.7-0.8-4.1-0.9c-29.3-2.2-57.8-8.5-84.7-20.4
		C103.4,513.7,48,444.9,28.9,347.4C26.9,337.4,26.1,327.2,24.7,317.2z M300.4,67.6C172.2,67.3,68.2,170.9,67.7,299.3
		c-0.5,128.2,103.5,232.6,232,232.9c128.1,0.3,232.1-103.3,232.7-231.7C532.9,172.3,428.9,67.9,300.4,67.6z"/>
	<path class="st0" d="M278.5,254c0-22.4,0-44.8,0-67.2c0-14,8.9-23.6,21.7-23.5c12.5,0.1,21.3,9.6,21.3,23.3c0,45,0,89.9,0,134.9
		c0,13.5-9,23.3-21.4,23.4c-12.3,0.1-21.6-9.8-21.6-23.1C278.5,299.1,278.5,276.5,278.5,254z"/>
	<path class="st0" d="M300,429.1c-16.1,0-29-13-29-29c0-15.9,13.2-29,29.1-29c15.9,0,29,13.2,29,29.1
		C329,416.2,316.1,429.1,300,429.1z"/>
</g>
</svg>
