<?xml version="1.0" encoding="UTF-8"?>
<svg id="Layer_2" data-name="Layer 2" xmlns="http://www.w3.org/2000/svg" viewBox="0 0 45 45">
  <defs>
    <style>
      .cls-1 {
        fill: #888988;
      }

      .cls-2 {
        fill: none;
        stroke: #888988;
        stroke-linejoin: round;
        stroke-width: 2px;
      }
    </style>
  </defs>
  <g id="Layer_1-2" data-name="Layer 1">
    <g>
      <path class="cls-1" d="m.57,7.97c-.64.64-.76,1.62-.29,2.39,1.36,2.25,9.3,12.26,15.7,18.66,6.4,6.4,16.41,14.34,18.66,15.7.77.47,1.76.35,2.39-.29l6.97-8.38-9.81-9.81-5.96,3.85-13.32-13.32,3.85-5.96L8.95,1,.57,7.97Z"/>
      <g>
        <path class="cls-2" d="m26,8c6.08,0,11,4.92,11,11"/>
        <path class="cls-2" d="m26,14c2.76,0,5,2.24,5,5"/>
        <path class="cls-2" d="m26,1c9.94,0,18,8.06,18,18"/>
      </g>
    </g>
  </g>
</svg>