<?xml version="1.0" encoding="UTF-8"?>
<svg id="Layer_2" data-name="Layer 2" xmlns="http://www.w3.org/2000/svg" viewBox="0 0 329.26 85.38">
  <defs>
    <style>
      .cls-1 {
        fill: #a0a0a0;
      }

      .cls-2 {
        fill: #0093c6;
      }
    </style>
  </defs>
  <g id="Layer_1-2" data-name="Layer 1">
    <g>
      <path class="cls-2" d="m28.43,79.82H10.28c-5.67,0-10.28-4.7-10.28-10.48V10.48C0,4.7,4.61,0,10.28,0h39.11c10.45,0,18.95,8.71,18.95,19.41v7.27c0,2.13-1.73,3.85-3.85,3.85s-3.85-1.73-3.85-3.85v-7.27c0-6.45-5.04-11.7-11.23-11.7H10.28c-1.42,0-2.57,1.24-2.57,2.77v58.87c0,1.53,1.15,2.77,2.57,2.77h18.15c2.13,0,3.85,1.73,3.85,3.85s-1.73,3.85-3.85,3.85Z"/>
      <path class="cls-1" d="m57.06,85.38h-20.88c-6.22,0-11.28-4.65-11.28-10.37v-31.21c0-5.72,5.06-10.37,11.28-10.37h10.86c7.49,0,13.59-5.14,13.59-11.46h7.71v53.04c0,5.72-5.06,10.37-11.28,10.37Zm-20.88-44.25c-1.94,0-3.57,1.22-3.57,2.66v31.21c0,1.44,1.64,2.66,3.57,2.66h20.88c1.94,0,3.57-1.22,3.57-2.66v-38.29c-3.69,2.76-8.43,4.42-13.59,4.42h-10.86Z"/>
    </g>
    <g>
      <path class="cls-2" d="m103.16,66.69c-1.55,0-2.74-.46-3.57-1.37-.84-.91-1.25-2.21-1.25-3.89V24.48c0-1.73.43-3.04,1.29-3.93.86-.89,2.06-1.33,3.6-1.33h15.3c4.89,0,8.68,1.33,11.38,3.99,2.7,2.66,4.04,6.32,4.04,10.99s-1.35,8.4-4.04,11.08c-2.7,2.69-6.49,4.03-11.38,4.03h-10.47v12.12c0,1.69-.41,2.99-1.22,3.89-.82.91-2.04,1.37-3.67,1.37Zm4.89-25.43h8.84c2.51,0,4.42-.59,5.74-1.76,1.32-1.17,1.98-2.94,1.98-5.29s-.66-4.04-1.98-5.19c-1.32-1.15-3.23-1.73-5.74-1.73h-8.84v13.98Z"/>
      <path class="cls-2" d="m139.02,66.69c-1.17,0-2.12-.28-2.85-.83s-1.18-1.32-1.35-2.3c-.17-.98,0-2.06.5-3.26l16.11-37.42c.67-1.46,1.47-2.53,2.41-3.19s1.99-1,3.17-1,2.28.33,3.2,1,1.71,1.73,2.38,3.19l16.11,37.42c.54,1.24.74,2.34.6,3.29-.15.96-.59,1.71-1.32,2.26-.73.55-1.64.83-2.73.83-1.42,0-2.52-.34-3.29-1.03s-1.45-1.79-2.04-3.3l-3.76-9.25,3.89,2.86h-26.14l3.89-2.86-3.7,9.25c-.67,1.51-1.34,2.61-2.01,3.3-.67.69-1.69,1.03-3.07,1.03Zm17.93-36.48l-8.09,20.37-1.69-2.66h19.62l-1.63,2.66-8.09-20.37h-.12Z"/>
      <path class="cls-2" d="m192.37,66.69c-1.55,0-2.74-.46-3.57-1.37-.84-.91-1.25-2.21-1.25-3.89V24.48c0-1.73.43-3.04,1.29-3.93.86-.89,2.06-1.33,3.6-1.33h15.3c4.89,0,8.68,1.33,11.38,3.99,2.7,2.66,4.04,6.32,4.04,10.99s-1.35,8.4-4.04,11.08c-2.7,2.69-6.49,4.03-11.38,4.03h-10.47v12.12c0,1.69-.41,2.99-1.22,3.89-.82.91-2.04,1.37-3.67,1.37Zm4.89-25.43h8.84c2.51,0,4.42-.59,5.74-1.76,1.32-1.17,1.98-2.94,1.98-5.29s-.66-4.04-1.98-5.19c-1.32-1.15-3.23-1.73-5.74-1.73h-8.84v13.98Z"/>
      <path class="cls-2" d="m236.5,66.69c-1.55,0-2.74-.46-3.57-1.37-.84-.91-1.25-2.21-1.25-3.89V23.95c0-1.73.42-3.04,1.25-3.93.84-.89,2.03-1.33,3.57-1.33s2.8.45,3.64,1.33c.84.89,1.25,2.2,1.25,3.93v37.48c0,1.69-.41,2.99-1.22,3.89-.82.91-2.04,1.37-3.67,1.37Z"/>
      <path class="cls-2" d="m257.88,66.16c-1.63,0-2.88-.47-3.76-1.4-.88-.93-1.32-2.28-1.32-4.06V24.68c0-1.77.44-3.13,1.32-4.06.88-.93,2.13-1.4,3.76-1.4h21.88c1.25,0,2.2.34,2.85,1.03.65.69.97,1.68.97,2.96s-.32,2.34-.97,3.03c-.65.69-1.6,1.03-2.85,1.03h-17.62v10.98h16.24c1.29,0,2.26.35,2.88,1.03s.94,1.7.94,3.03-.31,2.28-.94,2.96c-.63.69-1.59,1.03-2.88,1.03h-16.24v11.78h17.62c1.25,0,2.2.34,2.85,1.03.65.69.97,1.7.97,3.03s-.32,2.28-.97,2.96c-.65.69-1.6,1.03-2.85,1.03h-21.88Z"/>
      <path class="cls-2" d="m298.07,66.69c-1.55,0-2.74-.46-3.57-1.37-.84-.91-1.25-2.21-1.25-3.89V24.48c0-1.73.43-3.04,1.29-3.93.86-.89,2.06-1.33,3.6-1.33h15.3c4.89,0,8.68,1.27,11.38,3.8,2.7,2.53,4.04,6.06,4.04,10.58,0,2.93-.61,5.46-1.82,7.59-1.21,2.13-2.97,3.77-5.27,4.93-2.3,1.15-5.08,1.73-8.34,1.73l.57-1.06h2.51c1.75,0,3.29.45,4.61,1.33,1.32.89,2.43,2.26,3.35,4.13l3.95,7.72c.63,1.11.91,2.19.85,3.23s-.45,1.89-1.16,2.53c-.71.64-1.76.97-3.13.97s-2.5-.3-3.35-.9c-.86-.6-1.62-1.54-2.29-2.83l-6.08-11.72c-.59-1.29-1.33-2.14-2.23-2.56-.9-.42-2.02-.63-3.35-.63h-4.7v13.38c0,1.69-.41,2.99-1.22,3.89-.82.91-2.04,1.37-3.67,1.37Zm4.89-26.16h8.78c2.55,0,4.48-.55,5.8-1.67,1.32-1.11,1.98-2.77,1.98-4.99s-.66-3.82-1.98-4.93c-1.32-1.11-3.25-1.67-5.8-1.67h-8.78v13.25Z"/>
    </g>
  </g>
</svg>